<svg width="24" height="24" viewBox="0 0 24 24" fill="none" xmlns="http://www.w3.org/2000/svg">
    <path d="M3.86 19.782a.832.832 0 0 1-.613-.247.832.832 0 0 1-.247-.613c0-.244.082-.448.247-.613a.832.832 0 0 1 .613-.247h1.212V9.51c0-1.542.476-2.905 1.428-4.09.951-1.184 2.173-1.941 3.664-2.272v-.714c0-.398.14-.736.418-1.015A1.38 1.38 0 0 1 11.596 1c.398 0 .736.14 1.015.418.28.279.42.617.42 1.015v.714c1.49.33 2.712 1.088 3.664 2.273.951 1.184 1.427 2.547 1.427 4.089v8.553h1.213c.243 0 .447.083.612.247.165.165.247.37.247.613a.83.83 0 0 1-.247.613.832.832 0 0 1-.612.247H3.86zM11.595 23c-.57 0-1.058-.203-1.463-.609a1.997 1.997 0 0 1-.607-1.463h4.144c0 .572-.203 1.06-.609 1.465a2 2 0 0 1-1.465.607zm-4.803-4.938h9.61V9.51c0-1.327-.468-2.46-1.407-3.398-.938-.938-2.07-1.408-3.398-1.408-1.327 0-2.46.47-3.398 1.408-.938.938-1.407 2.07-1.407 3.398v8.553z" fill="#25292F"/>
</svg>
