<svg width="12" height="12" viewBox="0 0 12 12" fill="none" xmlns="http://www.w3.org/2000/svg">
    <path d="M4 5.5c.142 0 .26-.048.356-.144A.484.484 0 0 0 4.5 5a.484.484 0 0 0-.144-.356A.484.484 0 0 0 4 4.5a.484.484 0 0 0-.356.144A.484.484 0 0 0 3.5 5c0 .142.048.26.144.356A.484.484 0 0 0 4 5.5zm2 0c.142 0 .26-.048.356-.144A.484.484 0 0 0 6.5 5a.484.484 0 0 0-.144-.356A.484.484 0 0 0 6 4.5a.484.484 0 0 0-.356.144A.484.484 0 0 0 5.5 5c0 .142.048.26.144.356A.484.484 0 0 0 6 5.5zm2 0c.142 0 .26-.048.356-.144A.484.484 0 0 0 8.5 5a.484.484 0 0 0-.144-.356A.484.484 0 0 0 8 4.5a.484.484 0 0 0-.356.144A.484.484 0 0 0 7.5 5c0 .142.048.26.144.356A.484.484 0 0 0 8 5.5zM1 11V2c0-.275.098-.51.294-.706A.963.963 0 0 1 2 1h8c.275 0 .51.098.706.294A.963.963 0 0 1 11 2v6c0 .275-.098.51-.294.706A.963.963 0 0 1 10 9H3l-2 2zm1.575-3H10V2H2v6.563L2.575 8z" fill="#7A8086"/>
</svg>
