<svg width="104" height="104" viewBox="0 0 104 104" fill="none" xmlns="http://www.w3.org/2000/svg">
    <path d="m33.45 19.4-2.383-6.891c-.233-.628-.186-1.256.142-1.883a2.598 2.598 0 0 1 1.499-1.293c.628-.233 1.256-.181 1.884.155.628.336 1.058.818 1.291 1.445l2.384 6.825c.233.629.174 1.257-.176 1.884-.35.628-.838 1.058-1.466 1.292-.672.233-1.311.204-1.917-.088-.605-.292-1.025-.774-1.258-1.445zm15.966-5.316v-6.5c0-.745.245-1.362.734-1.85C50.639 5.243 51.255 5 52 5c.745 0 1.361.244 1.85.733.49.49.734 1.106.734 1.85v6.5c0 .745-.245 1.362-.734 1.851-.489.489-1.105.734-1.85.734-.745 0-1.361-.245-1.85-.734-.49-.489-.734-1.106-.734-1.85zm16.385 3.674 2.316-6.825a2.54 2.54 0 0 1 1.257-1.411c.607-.314 1.246-.355 1.918-.122.628.234 1.116.664 1.466 1.292.35.627.409 1.255.175 1.884L70.55 19.4c-.233.627-.664 1.11-1.291 1.445-.628.337-1.256.388-1.884.155-.628-.234-1.106-.676-1.433-1.325-.328-.65-.375-1.29-.141-1.918zm5.132 77.4a11.425 11.425 0 0 1-5.904-2.708 12.052 12.052 0 0 1-3.62-5.424l-3.684-11.484c-.738-2.333-.775-4.649-.108-6.946.667-2.297 1.883-4.206 3.65-5.729l4.974 15.55c.145.495.442.854.892 1.08.45.224.922.264 1.417.12.494-.145.85-.442 1.066-.892.217-.45.253-.922.109-1.416l-9.259-29.167c-.8-2.545-.757-5.063.126-7.555.883-2.491 2.466-4.398 4.75-5.72l.933-.534c.972-.522 1.974-.634 3.004-.337s1.807.932 2.33 1.905l17.283 32.742a4.775 4.775 0 0 0 1.966 2.116 5.53 5.53 0 0 0 2.783.741h.834c.878 0 1.62.34 2.225 1.018.605.677.836 1.455.692 2.332l-3.034 19.967c-.144 1.117-.637 1.972-1.478 2.566-.843.595-1.822.82-2.938.675l-19.008-2.9zm-37.8-.04-19.007 2.9c-1.118.144-2.097-.081-2.938-.676-.842-.594-1.335-1.45-1.48-2.566L6.677 74.809c-.145-.878.085-1.655.69-2.334.607-.677 1.348-1.016 2.226-1.016h.833c.99 0 1.917-.247 2.784-.742a4.776 4.776 0 0 0 1.966-2.117L32.46 35.86c.522-.972 1.298-1.607 2.329-1.905 1.03-.297 2.032-.184 3.004.338l.933.533c2.283 1.323 3.867 3.23 4.75 5.721.884 2.492.925 5.01.125 7.554l-9.324 29.167a1.92 1.92 0 0 0 .108 1.417c.217.45.572.747 1.066.892.495.144.967.097 1.417-.142.45-.24.747-.606.892-1.1l4.974-15.575c1.812 1.522 3.05 3.443 3.717 5.762.667 2.32.63 4.646-.108 6.98l-3.684 11.482a12.071 12.071 0 0 1-3.62 5.426 11.438 11.438 0 0 1-5.904 2.708z" fill="#3C8DFF"/>
</svg>
