<svg width="24" height="24" viewBox="0 0 24 24" fill="none" xmlns="http://www.w3.org/2000/svg">
    <path d="M12.5 18c-.412 0-.766-.147-1.06-.44A1.445 1.445 0 0 1 11 16.5c0-.413.147-.766.44-1.06.294-.293.648-.44 1.06-.44.412 0 .766.147 1.06.44.293.294.44.647.44 1.06 0 .413-.147.766-.44 1.06-.294.293-.648.44-1.06.44zm0-4.5c-.412 0-.766-.147-1.06-.44A1.445 1.445 0 0 1 11 12c0-.412.147-.766.44-1.06.294-.293.648-.44 1.06-.44.412 0 .766.147 1.06.44.293.294.44.648.44 1.06 0 .412-.147.766-.44 1.06-.294.293-.648.44-1.06.44zm0-4.5c-.412 0-.766-.147-1.06-.44A1.445 1.445 0 0 1 11 7.5c0-.412.147-.766.44-1.06.294-.293.648-.44 1.06-.44.412 0 .766.147 1.06.44.293.294.44.647.44 1.06 0 .412-.147.766-.44 1.06-.294.293-.648.44-1.06.44z" fill="#666B72"/>
</svg>
