<svg width="24" height="24" viewBox="0 0 24 24" fill="none" xmlns="http://www.w3.org/2000/svg">
    <path d="M11.137 23c-.395 0-.736-.131-1.023-.393a1.628 1.628 0 0 1-.525-.967l-.283-2.167a5.325 5.325 0 0 1-.954-.436 6.175 6.175 0 0 1-.874-.602l-2.006.853c-.364.16-.73.176-1.097.047a1.583 1.583 0 0 1-.856-.704L2.214 16.37c-.203-.34-.262-.7-.175-1.08.086-.378.283-.691.592-.938l1.734-1.302a5.856 5.856 0 0 1-.056-.519 8.064 8.064 0 0 1 0-1.02c.01-.171.03-.357.056-.559L2.631 9.65a1.608 1.608 0 0 1-.587-.945 1.449 1.449 0 0 1 .182-1.084l1.293-2.229c.204-.332.489-.565.856-.698.368-.133.733-.12 1.097.041l1.995.842c.28-.221.577-.423.894-.607.317-.183.628-.33.934-.442l.294-2.166c.063-.384.237-.706.525-.968A1.466 1.466 0 0 1 11.137 1h2.565c.395 0 .736.131 1.023.393.287.262.462.584.524.968l.283 2.177c.348.126.662.274.943.442.281.169.566.367.852.596l2.051-.842c.364-.16.73-.174 1.096-.04.368.132.653.365.857.697l1.294 2.24c.203.34.261.7.175 1.08-.086.378-.283.691-.592.938l-1.78 1.336c.042.187.065.361.069.524.003.162.005.326.005.491 0 .157-.003.317-.011.48a3.334 3.334 0 0 1-.08.558l1.746 1.313c.308.247.508.56.598.939a1.4 1.4 0 0 1-.17 1.079l-1.312 2.251a1.58 1.58 0 0 1-.862.704c-.371.129-.738.113-1.102-.047l-1.982-.853c-.287.229-.579.43-.877.607-.299.176-.604.32-.918.43l-.283 2.179a1.627 1.627 0 0 1-.524.967 1.466 1.466 0 0 1-1.023.393h-2.565zm.124-1.737h2.276l.417-3.102a6.45 6.45 0 0 0 1.62-.658c.489-.284.96-.65 1.415-1.096l2.877 1.209 1.14-1.969-2.512-1.892c.096-.3.162-.594.197-.882a7.248 7.248 0 0 0 0-1.746 4.52 4.52 0 0 0-.197-.86l2.534-1.914-1.14-1.969-2.91 1.227a6.165 6.165 0 0 0-1.393-1.098 5.99 5.99 0 0 0-1.642-.674l-.366-3.102H11.28l-.383 3.09c-.59.14-1.136.354-1.636.642-.5.288-.978.659-1.432 1.113L4.95 6.384 3.81 8.353l2.5 1.863c-.096.275-.164.56-.202.858a7.272 7.272 0 0 0 0 1.823c.038.29.102.576.191.858l-2.489 1.892 1.14 1.969L7.817 16.4c.44.451.909.82 1.41 1.109.5.288 1.053.51 1.658.663l.377 3.091zm1.172-5.79c.963 0 1.783-.337 2.459-1.014.676-.676 1.014-1.496 1.014-2.459 0-.963-.338-1.783-1.014-2.46-.676-.676-1.496-1.014-2.46-1.014-.975 0-1.797.338-2.468 1.015-.67.676-1.005 1.496-1.005 2.459 0 .963.335 1.783 1.005 2.46.67.676 1.493 1.014 2.469 1.014z" fill="#25292F"/>
</svg>
