<svg width="32" height="32" viewBox="0 0 32 32" fill="none" xmlns="http://www.w3.org/2000/svg">
    <circle cx="16" cy="16" r="16" fill="#3C8DFF"/>
    <path d="M16 20.307c.966 0 1.785-.336 2.457-1.008.672-.672 1.008-1.49 1.008-2.457 0-.966-.335-1.786-1.008-2.458-.672-.672-1.49-1.008-2.457-1.008-.966 0-1.786.336-2.457 1.008-.672.672-1.008 1.492-1.008 2.458 0 .966.335 1.785 1.008 2.457.671.672 1.49 1.008 2.457 1.008zm0-1.263c-.622 0-1.144-.211-1.568-.635-.423-.423-.635-.945-.635-1.567s.212-1.145.635-1.568c.424-.423.946-.635 1.568-.635.622 0 1.144.212 1.568.635.423.423.634.946.634 1.568 0 .622-.211 1.144-.634 1.567-.424.424-.946.635-1.568.635zm-6.478 4.114a1.47 1.47 0 0 1-1.08-.443A1.47 1.47 0 0 1 8 21.636v-9.587c0-.425.147-.785.442-1.08a1.47 1.47 0 0 1 1.08-.442h2.572l1.101-1.193c.138-.153.306-.273.501-.36.196-.087.403-.131.62-.131h3.368c.217 0 .424.044.62.131.196.087.363.207.5.36l1.102 1.193h2.572c.425 0 .785.147 1.08.442.295.295.442.655.442 1.08v9.587c0 .426-.147.786-.442 1.08a1.47 1.47 0 0 1-1.08.443H9.522z" fill="#fff"/>
</svg>
