<svg width="96" height="96" viewBox="0 0 96 96" fill="none" xmlns="http://www.w3.org/2000/svg">
    <g clip-path="url(#piwa8yv5va)">
        <circle cx="48" cy="48" r="48" fill="#D9D9D9"/>
        <mask id="y3m0kkh5bb" style="mask-type:alpha" maskUnits="userSpaceOnUse" x="0" y="0" width="96" height="96">
            <circle cx="48" cy="48" r="48" fill="#D9D9D9"/>
        </mask>
        <g mask="url(#y3m0kkh5bb)">
            <path d="M48 58.71c-5.633 0-10.444-1.989-14.436-5.967-3.99-3.977-5.986-8.773-5.986-14.388 0-5.614 1.995-10.41 5.986-14.388C37.556 19.989 42.367 18 48 18c5.633 0 10.445 1.989 14.436 5.967 3.991 3.978 5.987 8.774 5.987 14.388 0 5.615-1.996 10.411-5.987 14.388C58.445 56.721 53.633 58.71 48 58.71zM4.238 94.164V90.07c0-2.848.776-5.485 2.328-7.912 1.552-2.427 3.626-4.293 6.223-5.598 5.767-2.818 11.585-4.931 17.454-6.34A75.792 75.792 0 0 1 48 68.106c5.97 0 11.889.704 17.757 2.114 5.87 1.409 11.688 3.522 17.454 6.34 2.597 1.305 4.671 3.17 6.223 5.598 1.553 2.427 2.329 5.064 2.329 7.912v4.094c0 2.453-.863 4.539-2.587 6.258-1.724 1.719-3.817 2.578-6.278 2.578H13.103c-2.462 0-4.555-.859-6.279-2.578-1.724-1.72-2.586-3.805-2.586-6.258z" fill="#fff"/>
        </g>
    </g>
    <defs>
        <clipPath id="piwa8yv5va">
            <path fill="#fff" d="M0 0h96v96H0z"/>
        </clipPath>
    </defs>
</svg>
