<svg width="45" height="30" viewBox="0 0 45 30" fill="none" xmlns="http://www.w3.org/2000/svg">
    <g clip-path="url(#ocytk7lh7a)">
        <path d="M-.318 0H56.49v30H-.32V0z" fill="#C60C30"/>
        <path d="M-.318 0h22.723v16.154H-.318V0z" fill="#002C78"/>
        <path d="M22.406 2.309h34.086v2.307H22.406V2.31zM22.406 6.924h34.086v2.308H22.406V6.924zM22.406 11.54h34.086v2.307H22.406v-2.308zM-.318 16.154H56.49v2.308H-.32v-2.308zM-.318 20.77H56.49v2.307H-.32V20.77zM-.318 25.385H56.49v2.307H-.32v-2.307zM1.358 1.316l.217-.671.218.67h.703l-.57.416.218.671-.569-.415-.569.415.217-.671-.569-.415h.704zM5.145 1.316l.217-.671.218.67h.703l-.569.416.217.671-.569-.415-.569.415.218-.671-.57-.415h.704zM8.933 1.316 9.15.645l.218.67h.703l-.569.416.218.671-.57-.415-.569.415.218-.671-.57-.415h.704zM12.72 1.316l.216-.671.218.67h.703l-.569.416.218.671-.57-.415-.569.415.218-.671-.57-.415h.704zM16.506 1.316l.218-.671.217.67h.704l-.57.416.218.671-.57-.415-.569.415.218-.671-.57-.415h.704zM20.295 1.316l.218-.671.217.67h.704l-.57.416.218.671-.57-.415-.569.415.218-.671-.57-.415h.704zM3.252 2.931l.218-.671.217.671h.704l-.57.415.218.671-.57-.415-.568.415.217-.671-.57-.415h.704zM7.04 2.931l.217-.671.217.671h.704l-.57.415.218.671-.57-.415-.568.415.217-.671-.57-.415h.704zM10.826 2.931l.218-.671.217.671h.704l-.57.415.218.671-.57-.415-.568.415.217-.671-.569-.415h.704zM14.614 2.931l.217-.671.217.671h.704l-.57.415.218.671-.569-.415-.57.415.218-.671-.569-.415h.704zM18.4 2.931l.218-.671.218.671h.703l-.57.415.218.671-.569-.415-.569.415.217-.671-.569-.415h.704zM1.358 4.546l.217-.671.218.671h.703l-.57.415.218.672-.569-.415-.569.415.217-.672-.569-.415h.704zM5.145 4.546l.217-.671.218.671h.703l-.569.415.217.672-.569-.415-.569.415.218-.672-.57-.415h.704zM8.933 4.546l.217-.671.218.671h.703l-.569.415.218.672-.57-.415-.569.415.218-.672-.57-.415h.704zM12.72 4.546l.216-.671.218.671h.703l-.569.415.218.672-.57-.415-.569.415.218-.672-.57-.415h.704zM16.506 4.546l.218-.671.217.671h.704l-.57.415.218.672-.57-.415-.569.415.218-.672-.57-.415h.704zM20.295 4.546l.218-.671.217.671h.704l-.57.415.218.672-.57-.415-.569.415.218-.672-.57-.415h.704zM3.252 6.162l.218-.672.217.672h.704l-.57.414.218.672-.57-.415-.568.415.217-.672-.57-.414h.704zM7.04 6.162l.217-.672.217.672h.704l-.57.414.218.672-.57-.415-.568.415.217-.672-.57-.414h.704zM10.826 6.162l.218-.672.217.672h.704l-.57.414.218.672-.57-.415-.568.415.217-.672-.569-.414h.704zM14.614 6.162l.217-.672.217.672h.704l-.57.414.218.672-.569-.415-.57.415.218-.672-.569-.414h.704zM18.4 6.162l.218-.672.218.672h.703l-.57.414.218.672-.569-.415-.569.415.217-.672-.569-.414h.704zM1.358 7.777l.217-.672.218.672h.703l-.57.415.218.671-.569-.415-.569.415.217-.671-.569-.415h.704zM5.145 7.777l.217-.672.218.672h.703l-.569.415.217.671-.569-.415-.569.415.218-.671-.57-.415h.704zM8.933 7.777l.217-.672.218.672h.703l-.569.415.218.671-.57-.415-.569.415.218-.671-.57-.415h.704zM12.72 7.777l.216-.672.218.672h.703l-.569.415.218.671-.57-.415-.569.415.218-.671-.57-.415h.704zM16.506 7.777l.218-.672.217.672h.704l-.57.415.218.671-.57-.415-.569.415.218-.671-.57-.415h.704zM20.295 7.777l.218-.672.217.672h.704l-.57.415.218.671-.57-.415-.569.415.218-.671-.57-.415h.704zM3.252 9.392l.218-.671.217.671h.704l-.57.415.218.671-.57-.415-.568.415.217-.671-.57-.415h.704zM7.04 9.392l.217-.671.217.671h.704l-.57.415.218.671-.57-.415-.568.415.217-.671-.57-.415h.704zM10.826 9.392l.218-.671.217.671h.704l-.57.415.218.671-.57-.415-.568.415.217-.671-.569-.415h.704zM14.614 9.392l.217-.671.217.671h.704l-.57.415.218.671-.569-.415-.57.415.218-.671-.569-.415h.704zM18.4 9.392l.218-.671.218.671h.703l-.57.415.218.671-.569-.415-.569.415.217-.671-.569-.415h.704zM1.358 11.007l.217-.671.218.671h.703l-.57.415.218.671-.569-.414-.569.415.217-.672-.569-.415h.704zM5.145 11.007l.217-.671.218.671h.703l-.569.415.217.671-.569-.414-.569.415.218-.672-.57-.415h.704zM8.933 11.007l.217-.671.218.671h.703l-.569.415.218.671-.57-.414-.569.415.218-.672-.57-.415h.704zM12.72 11.007l.216-.671.218.671h.703l-.569.415.218.671-.57-.414-.569.415.218-.672-.57-.415h.704zM16.506 11.007l.218-.671.217.671h.704l-.57.415.218.671-.57-.414-.569.415.218-.672-.57-.415h.704zM20.295 11.007l.218-.671.217.671h.704l-.57.415.218.671-.57-.414-.569.415.218-.672-.57-.415h.704zM3.252 12.623l.218-.672.217.671h.704l-.57.415.218.672-.57-.415-.568.415.217-.672-.57-.415h.704zM7.04 12.623l.217-.672.217.671h.704l-.57.415.218.672-.57-.415-.568.415.217-.672-.57-.415h.704zM10.826 12.623l.218-.672.217.671h.704l-.57.415.218.672-.57-.415-.568.415.217-.672-.569-.415h.704zM14.614 12.623l.217-.672.217.671h.704l-.57.415.218.672-.569-.415-.57.415.218-.672-.569-.415h.704zM18.4 12.623l.218-.672.218.671h.703l-.57.415.218.672-.569-.415-.569.415.217-.672-.569-.415h.704zM1.358 14.238l.217-.672.218.672h.703l-.57.415.218.671-.569-.415-.569.415.217-.671-.569-.415h.704zM5.145 14.238l.217-.672.218.672h.703l-.569.415.217.671-.569-.415-.569.415.218-.671-.57-.415h.704zM8.933 14.238l.217-.672.218.672h.703l-.569.415.218.671-.57-.415-.569.415.218-.671-.57-.415h.704zM12.72 14.238l.216-.672.218.672h.703l-.569.415.218.671-.57-.415-.569.415.218-.671-.57-.415h.704zM16.506 14.238l.218-.672.217.672h.704l-.57.415.218.671-.57-.415-.569.415.218-.671-.57-.415h.704zM20.295 14.238l.218-.672.217.672h.704l-.57.415.218.671-.57-.415-.569.415.218-.671-.57-.415h.704z" fill="#fff"/>
    </g>
    <rect x=".25" y=".25" width="44.5" height="29.5" rx="5.375" stroke="#000" stroke-opacity=".05" stroke-width=".5"/>
    <defs>
        <clipPath id="ocytk7lh7a">
            <rect width="45" height="30" rx="5.625" fill="#fff"/>
        </clipPath>
    </defs>
</svg>
