<svg width="20" height="20" viewBox="0 0 20 20" fill="none" xmlns="http://www.w3.org/2000/svg">
    <path fill="#fff" d="M4 4h12v12H4z"/>
    <path fill-rule="evenodd" clip-rule="evenodd" d="M0 3a3 3 0 0 1 3-3h14a3 3 0 0 1 3 3v14a3 3 0 0 1-3 3H3a3 3 0 0 1-3-3V3zm8.58 9.146L6.259 9.823a.726.726 0 0 0-.522-.213.708.708 0 0 0-.532.213.718.718 0 0 0-.217.527c0 .206.072.382.217.527l2.744 2.744c.18.18.392.271.633.271.24 0 .452-.09.633-.27l5.563-5.564a.726.726 0 0 0 .213-.522.708.708 0 0 0-.213-.532.718.718 0 0 0-.527-.217.718.718 0 0 0-.527.217l-5.142 5.142z" fill="#3C8DFF"/>
</svg>
