<svg width="24" height="24" viewBox="0 0 24 24" fill="none" xmlns="http://www.w3.org/2000/svg">
    <path d="M11.981 20.5c-2.01 0-3.782-.613-5.315-1.84-1.534-1.227-2.516-2.797-2.948-4.71a.621.621 0 0 1 .097-.548.693.693 0 0 1 .504-.29.78.78 0 0 1 .55.12.845.845 0 0 1 .34.476c.38 1.545 1.2 2.813 2.46 3.804C8.929 18.505 10.366 19 11.98 19c1.95 0 3.604-.68 4.963-2.038C18.302 15.604 18.98 13.95 18.98 12c0-1.95-.68-3.604-2.037-4.963C15.585 5.68 13.93 5 11.98 5a6.683 6.683 0 0 0-3.07.728 7.558 7.558 0 0 0-2.468 2.003h1.865c.213 0 .39.072.534.216a.726.726 0 0 1 .216.534c0 .213-.072.39-.216.534a.725.725 0 0 1-.534.216H4.885a.874.874 0 0 1-.644-.26.874.874 0 0 1-.26-.644V4.904c0-.213.072-.39.216-.534a.726.726 0 0 1 .535-.216c.212 0 .39.072.534.216a.726.726 0 0 1 .215.534v1.619a8.487 8.487 0 0 1 2.916-2.23A8.368 8.368 0 0 1 11.98 3.5c1.18 0 2.285.223 3.316.67a8.609 8.609 0 0 1 2.696 1.819 8.609 8.609 0 0 1 1.819 2.695c.446 1.03.67 2.136.67 3.316 0 1.18-.224 2.285-.67 3.315a8.606 8.606 0 0 1-1.82 2.697 8.607 8.607 0 0 1-2.695 1.819 8.254 8.254 0 0 1-3.316.669zm.779-8.804 2.75 2.75c.138.139.21.313.212.522a.706.706 0 0 1-.212.532.717.717 0 0 1-.527.217.718.718 0 0 1-.527-.217l-2.925-2.925a.905.905 0 0 1-.27-.648V7.75c0-.213.07-.39.215-.535A.727.727 0 0 1 12.01 7c.213 0 .39.072.535.215a.727.727 0 0 1 .215.535v3.946z" fill="#666B72"/>
</svg>
