<svg width="24" height="24" viewBox="0 0 24 24" fill="none" xmlns="http://www.w3.org/2000/svg">
    <circle cx="12" cy="12" r="10" fill="#666B72"/>
    <path d="M12 12.83 8.002 16.83a.573.573 0 0 1-.412.167.558.558 0 0 1-.419-.167.566.566 0 0 1-.171-.416c0-.162.057-.3.171-.415L11.17 12 7.171 8.002a.572.572 0 0 1-.167-.412.558.558 0 0 1 .167-.419A.566.566 0 0 1 7.587 7c.162 0 .3.057.415.171L12 11.17l3.998-3.998a.572.572 0 0 1 .412-.167.558.558 0 0 1 .419.167.566.566 0 0 1 .171.416.566.566 0 0 1-.171.415L12.83 12l3.998 3.998c.109.11.165.246.167.412a.558.558 0 0 1-.167.419.566.566 0 0 1-.416.171.566.566 0 0 1-.415-.171L12 12.83z" fill="#fff"/>
</svg>
