<svg width="20" height="20" viewBox="0 0 20 20" fill="none" xmlns="http://www.w3.org/2000/svg">
    <path d="m10 10.774-3.56 3.56a.498.498 0 0 1-.374.168.565.565 0 0 1-.38-.188.543.543 0 0 1-.181-.387c0-.137.06-.266.18-.387L9.227 10 5.665 6.44a.51.51 0 0 1-.167-.384.573.573 0 0 1 .188-.391c.12-.12.25-.181.387-.181s.266.06.387.18L10 9.227l3.56-3.561a.548.548 0 0 1 .384-.177c.14-.003.27.056.39.177.122.12.182.25.182.387s-.06.266-.181.387L10.774 10l3.56 3.562c.116.115.175.24.178.373.003.132-.056.26-.177.38a.543.543 0 0 1-.387.181.543.543 0 0 1-.387-.18L10 10.773z" fill="#fff"/>
</svg>
