<svg width="20" height="20" viewBox="0 0 20 20" fill="none" xmlns="http://www.w3.org/2000/svg">
    <g clip-path="url(#7qbteyahma)">
        <path fill="#fff" d="M4 4h12v12H4z"/>
        <path fill-rule="evenodd" clip-rule="evenodd" d="M20 10c0 5.523-4.477 10-10 10S0 15.523 0 10 4.477 0 10 0s10 4.477 10 10zM6.258 9.823l2.323 2.323 5.142-5.142a.718.718 0 0 1 .527-.217c.206 0 .382.072.527.217a.708.708 0 0 1 .213.532.726.726 0 0 1-.213.522L9.214 13.62a.867.867 0 0 1-.633.271.868.868 0 0 1-.633-.27l-2.744-2.745a.718.718 0 0 1-.217-.527c0-.206.072-.382.217-.527a.708.708 0 0 1 .532-.213c.21.004.383.075.522.213z" fill="#3C8DFF"/>
    </g>
    <defs>
        <clipPath id="7qbteyahma">
            <path fill="#fff" d="M0 0h20v20H0z"/>
        </clipPath>
    </defs>
</svg>
