<svg width="24" height="24" viewBox="0 0 24 24" fill="none" xmlns="http://www.w3.org/2000/svg">
    <path d="M12 17.115c1.148 0 2.12-.399 2.918-1.197s1.197-1.77 1.197-2.918c0-1.148-.399-2.12-1.197-2.918S13.148 8.885 12 8.885c-1.148 0-2.12.399-2.918 1.197S7.885 11.852 7.885 13c0 1.148.399 2.12 1.197 2.918s1.77 1.197 2.918 1.197zm0-1.5c-.739 0-1.359-.25-1.861-.754-.503-.502-.755-1.123-.755-1.861 0-.739.252-1.359.755-1.861.502-.503 1.123-.755 1.861-.755.739 0 1.359.252 1.861.755.503.502.755 1.123.755 1.861 0 .739-.252 1.359-.755 1.861-.502.503-1.123.755-1.861.755zM4.308 20.5c-.505 0-.933-.175-1.283-.525a1.745 1.745 0 0 1-.525-1.283V7.308c0-.505.175-.933.525-1.283.35-.35.778-.525 1.283-.525h3.054l1.307-1.417c.164-.181.363-.323.595-.427.233-.104.478-.156.736-.156h4c.258 0 .503.052.736.156.232.104.43.246.595.427L16.639 5.5h3.053c.505 0 .933.175 1.283.525.35.35.525.778.525 1.283v11.384c0 .505-.175.933-.525 1.283-.35.35-.778.525-1.283.525H4.308z" fill="#7A8086"/>
</svg>
