<svg width="24" height="24" viewBox="0 0 24 24" fill="none" xmlns="http://www.w3.org/2000/svg">
    <path d="m12 13.412-6.797 6.797a.972.972 0 0 1-.7.285.948.948 0 0 1-.712-.285.962.962 0 0 1-.291-.706c0-.277.097-.512.291-.706L10.588 12 3.791 5.203a.973.973 0 0 1-.285-.7.948.948 0 0 1 .285-.712.962.962 0 0 1 .706-.291c.277 0 .512.097.706.291L12 10.588l6.797-6.797a.973.973 0 0 1 .7-.285c.28-.004.518.091.712.285.194.194.291.43.291.706a.962.962 0 0 1-.291.706L13.412 12l6.797 6.797c.185.185.28.419.285.7a.947.947 0 0 1-.285.712.962.962 0 0 1-.706.291.962.962 0 0 1-.706-.291L12 13.412z" fill="#25292F"/>
</svg>
