<svg width="24" height="24" viewBox="0 0 24 24" fill="none" xmlns="http://www.w3.org/2000/svg">
    <path d="M6.308 22.5c-.505 0-.933-.176-1.283-.526a1.745 1.745 0 0 1-.525-1.282V10.307c0-.505.175-.933.525-1.283.35-.35.778-.525 1.283-.525h1.808c.212 0 .39.072.534.216a.726.726 0 0 1 .215.534.726.726 0 0 1-.215.535.726.726 0 0 1-.534.215H6.308a.294.294 0 0 0-.212.096.294.294 0 0 0-.096.212v10.385c0 .076.032.147.096.211a.293.293 0 0 0 .212.096h11.384a.294.294 0 0 0 .212-.096.294.294 0 0 0 .096-.211V10.307a.294.294 0 0 0-.096-.212.294.294 0 0 0-.212-.096h-1.808a.726.726 0 0 1-.534-.215.726.726 0 0 1-.215-.535c0-.213.072-.39.215-.534a.726.726 0 0 1 .534-.216h1.808c.505 0 .933.175 1.283.525.35.35.525.778.525 1.283v10.385c0 .505-.175.932-.525 1.282-.35.35-.778.525-1.283.525H6.308zM11.25 4.718 9.927 6.042a.705.705 0 0 1-.522.22.742.742 0 0 1-.532-.236.784.784 0 0 1-.225-.527.7.7 0 0 1 .225-.526l2.494-2.495A.867.867 0 0 1 12 2.207c.241 0 .452.09.633.271l2.494 2.495c.138.138.21.31.212.514a.749.749 0 0 1-.212.54.735.735 0 0 1-.535.232.735.735 0 0 1-.534-.233L12.75 4.72v10.28a.725.725 0 0 1-.216.535.726.726 0 0 1-.534.215.726.726 0 0 1-.534-.215.725.725 0 0 1-.216-.535V4.72z" fill="#7A8086"/>
</svg>
