<svg width="16" height="16" viewBox="0 0 16 16" fill="none" xmlns="http://www.w3.org/2000/svg">
    <path d="M7.992 11.744c.19 0 .352-.066.483-.197a.657.657 0 0 0 .197-.483.655.655 0 0 0-.197-.482.657.657 0 0 0-.483-.197.655.655 0 0 0-.482.197.657.657 0 0 0-.197.483c0 .19.065.35.197.482a.657.657 0 0 0 .482.197zm.009 2.59a6.17 6.17 0 0 1-2.47-.499 6.398 6.398 0 0 1-2.011-1.354 6.397 6.397 0 0 1-1.355-2.01 6.164 6.164 0 0 1-.498-2.47c0-.876.166-1.699.498-2.47A6.397 6.397 0 0 1 3.52 3.52a6.396 6.396 0 0 1 2.01-1.354A6.164 6.164 0 0 1 8 1.667c.876 0 1.7.166 2.47.499.77.332 1.441.783 2.011 1.353.57.57 1.022 1.24 1.354 2.01.333.771.5 1.594.5 2.47 0 .876-.167 1.7-.5 2.47a6.397 6.397 0 0 1-1.353 2.012 6.396 6.396 0 0 1-2.01 1.354 6.163 6.163 0 0 1-2.47.499zm-.001-1c1.489 0 2.75-.517 3.783-1.55 1.034-1.034 1.55-2.295 1.55-3.784 0-1.489-.517-2.75-1.55-3.783S9.49 2.667 8 2.667c-1.489 0-2.75.517-3.784 1.55C3.183 5.25 2.667 6.511 2.667 8c0 1.49.517 2.75 1.55 3.784 1.034 1.033 2.295 1.55 3.784 1.55zm.054-8.188c.307 0 .574.097.798.291a.92.92 0 0 1 .338.726c0 .245-.072.463-.216.656a3.695 3.695 0 0 1-.492.54 4.24 4.24 0 0 0-.64.709 1.558 1.558 0 0 0-.295.86.377.377 0 0 0 .129.306c.09.082.194.123.313.123a.452.452 0 0 0 .326-.129.584.584 0 0 0 .17-.314c.045-.229.14-.433.285-.612.145-.179.302-.35.47-.51.243-.237.456-.496.637-.775.18-.28.271-.592.271-.936 0-.528-.208-.962-.624-1.302a2.236 2.236 0 0 0-1.457-.51c-.397 0-.771.088-1.122.264a1.924 1.924 0 0 0-.82.769.457.457 0 0 0-.06.326c.022.114.081.201.177.26a.515.515 0 0 0 .375.058.564.564 0 0 0 .326-.219c.135-.175.299-.316.49-.422.193-.106.4-.159.62-.159z" fill="#A4A9B0"/>
</svg>
