<svg width="48" height="48" viewBox="0 0 48 48" fill="none" xmlns="http://www.w3.org/2000/svg">
    <g clip-path="url(#eltuqra7ca)">
        <path d="M10.836 46.329c-1.158.594-2.472-.447-2.238-1.776l2.49-14.19L.518 20.295c-.986-.942-.473-2.664.85-2.85l14.694-2.088 6.552-12.981a1.54 1.54 0 0 1 2.78 0l6.553 12.981 14.694 2.088c1.323.186 1.836 1.908.846 2.85L36.92 30.363l2.49 14.19c.234 1.329-1.08 2.37-2.238 1.776L24 39.561l-13.164 6.768z" fill="#FA8646"/>
    </g>
    <defs>
        <clipPath id="eltuqra7ca">
            <path fill="#fff" d="M0 0h48v48H0z"/>
        </clipPath>
    </defs>
</svg>
