<svg width="65" height="64" viewBox="0 0 65 64" fill="none" xmlns="http://www.w3.org/2000/svg">
    <path d="M14.5 50.358c-.567 0-1.042-.191-1.425-.575-.383-.383-.575-.858-.575-1.426 0-.566.192-1.041.575-1.424.383-.383.858-.574 1.425-.574h2.82V26.46c0-3.586 1.108-6.757 3.321-9.513 2.214-2.755 5.055-4.518 8.526-5.287V9.999c0-.925.323-1.713.971-2.361.648-.648 1.434-.972 2.359-.972s1.712.324 2.362.972c.65.648.974 1.436.974 2.361v1.662c3.47.769 6.312 2.532 8.526 5.287 2.213 2.756 3.32 5.927 3.32 9.513v19.898H50.5c.567 0 1.042.191 1.425.574.383.384.575.86.575 1.426 0 .567-.192 1.042-.575 1.425-.383.383-.858.574-1.425.574h-36zm17.995 7.487c-1.326 0-2.46-.472-3.402-1.416-.943-.944-1.414-2.079-1.414-3.404h9.642c0 1.33-.473 2.466-1.418 3.408-.945.941-2.08 1.412-3.408 1.412z" fill="#A4A9B0"/>
</svg>
