<svg width="24" height="24" viewBox="0 0 24 24" fill="none" xmlns="http://www.w3.org/2000/svg">
    <path d="M6.326 22c-.59 0-1.093-.21-1.512-.629a2.062 2.062 0 0 1-.63-1.512V4.824h-.296a.859.859 0 0 1-.632-.255A.86.86 0 0 1 3 3.936c0-.252.085-.463.256-.633a.86.86 0 0 1 .632-.255H8.33c0-.29.102-.537.307-.742A1.01 1.01 0 0 1 9.378 2h5.012c.29 0 .537.102.74.306.205.205.307.452.307.742h4.442c.252 0 .463.085.633.255a.86.86 0 0 1 .256.633.858.858 0 0 1-.256.633.86.86 0 0 1-.633.255h-.296V19.86c0 .589-.21 1.093-.629 1.512-.419.42-.923.629-1.512.629H6.326zm11.48-17.176H5.961V19.86c0 .106.034.193.103.262a.355.355 0 0 0 .262.102h11.116a.355.355 0 0 0 .262-.102.355.355 0 0 0 .102-.262V4.824zm-8.108 13.03a.86.86 0 0 0 .632-.255.86.86 0 0 0 .255-.633V8.082a.86.86 0 0 0-.255-.633.86.86 0 0 0-.633-.255.86.86 0 0 0-.633.255.86.86 0 0 0-.255.633v8.884a.86.86 0 0 0 .255.633.86.86 0 0 0 .634.255zm4.373 0a.86.86 0 0 0 .633-.255.86.86 0 0 0 .255-.633V8.082a.86.86 0 0 0-.255-.633.86.86 0 0 0-.634-.255.86.86 0 0 0-.633.255.86.86 0 0 0-.255.633v8.884a.86.86 0 0 0 .256.633.86.86 0 0 0 .633.255z" fill="#25292F"/>
</svg>
