<svg width="24" height="24" viewBox="0 0 24 24" fill="none" xmlns="http://www.w3.org/2000/svg">
    <g clip-path="url(#0vskf0o43a)">
        <rect width="24" height="24" rx="6" fill="#F6FCFF"/>
        <path d="M12.114 15.602c.431 0 .819-.102 1.162-.305.344-.202.515-.528.515-.976 0-.372-.148-.67-.443-.89-.295-.221-.845-.471-1.651-.75-.78-.263-1.343-.559-1.688-.886-.345-.326-.518-.758-.518-1.295 0-.46.177-.882.53-1.265.353-.383.846-.627 1.48-.732v-.378c0-.13.052-.244.156-.341a.512.512 0 0 1 .362-.147c.138 0 .259.05.362.147a.455.455 0 0 1 .156.341v.378c.357.023.689.133.996.327.307.195.558.437.753.725a.29.29 0 0 1 .019.317.475.475 0 0 1-.285.237.621.621 0 0 1-.38.017.58.58 0 0 1-.314-.206 1.685 1.685 0 0 0-.536-.403 1.701 1.701 0 0 0-.752-.154c-.472 0-.841.105-1.11.316a.997.997 0 0 0-.401.821c0 .337.13.6.392.787.262.188.791.41 1.589.666.91.31 1.521.657 1.834 1.042.313.384.47.826.47 1.326a1.919 1.919 0 0 1-.725 1.546 2.567 2.567 0 0 1-.737.416c-.276.102-.56.173-.851.214v.378c0 .13-.052.244-.156.341a.512.512 0 0 1-.362.147.512.512 0 0 1-.362-.147.455.455 0 0 1-.156-.341v-.413a3.105 3.105 0 0 1-1.21-.512 2.785 2.785 0 0 1-.83-.962.403.403 0 0 1-.002-.373.485.485 0 0 1 .29-.252.545.545 0 0 1 .384.002.57.57 0 0 1 .3.237c.196.328.442.576.738.745.296.17.623.255.98.255zM12 20c-1.479 0-2.821-.345-4.026-1.035a7.635 7.635 0 0 1-2.836-2.771v1.594c0 .152-.055.28-.164.382a.568.568 0 0 1-.405.154.57.57 0 0 1-.406-.154.504.504 0 0 1-.163-.382v-2.747c0-.184.065-.338.196-.46a.686.686 0 0 1 .49-.185h2.917c.161 0 .296.05.405.153.109.103.163.23.163.382s-.054.28-.163.382a.569.569 0 0 1-.405.154H6.017c.548 1.04 1.359 1.877 2.431 2.511 1.073.634 2.257.95 3.552.95 1.763 0 3.285-.547 4.565-1.644 1.28-1.096 2.02-2.464 2.216-4.104.02-.15.087-.27.2-.363a.621.621 0 0 1 .406-.138c.162 0 .298.05.408.153.11.102.155.224.135.366a6.952 6.952 0 0 1-.812 2.672 7.65 7.65 0 0 1-1.737 2.155A8.193 8.193 0 0 1 12 20zm0-13.929c-1.734 0-3.247.54-4.54 1.62-1.292 1.08-2.04 2.455-2.24 4.122a.56.56 0 0 1-.2.366.612.612 0 0 1-.407.142.574.574 0 0 1-.412-.153.41.41 0 0 1-.131-.373 7.086 7.086 0 0 1 .838-2.703 7.653 7.653 0 0 1 1.747-2.148A8.156 8.156 0 0 1 9.09 5.518 8.164 8.164 0 0 1 12 5c1.464 0 2.806.346 4.026 1.038 1.22.692 2.166 1.624 2.836 2.796V7.212c0-.152.055-.28.164-.382a.569.569 0 0 1 .405-.154c.162 0 .297.051.406.154.109.102.163.23.163.382v2.747a.607.607 0 0 1-.196.46.686.686 0 0 1-.49.185h-2.917a.568.568 0 0 1-.405-.153.503.503 0 0 1-.163-.382c0-.152.054-.28.163-.382a.569.569 0 0 1 .405-.154h1.586c-.534-1.022-1.338-1.854-2.413-2.497-1.075-.643-2.265-.965-3.57-.965z" fill="#25292F"/>
    </g>
    <defs>
        <clipPath id="0vskf0o43a">
            <rect width="24" height="24" rx="6" fill="#fff"/>
        </clipPath>
    </defs>
</svg>
