<svg width="24" height="24" viewBox="0 0 24 24" fill="none" xmlns="http://www.w3.org/2000/svg">
    <rect width="24" height="24" rx="6" fill="#F1F7FF"/>
    <path d="M14.797 8h2.34a.571.571 0 0 1 .569.514L18.054 12h-1.15l-.285-2.857h-1.822v1.714a.572.572 0 0 1-1.143 0V9.143H9.083v1.714a.572.572 0 1 1-1.143 0V9.143H6.117l-.914 9.143h6.166v1.143H4.57a.572.572 0 0 1-.568-.629L5.03 8.514A.571.571 0 0 1 5.6 8H7.94v-.399C7.94 5.62 9.467 4 11.369 4c1.901 0 3.428 1.62 3.428 3.601v.4V8zm-1.143 0v-.399c0-1.364-1.03-2.458-2.285-2.458-1.255 0-2.286 1.094-2.286 2.458v.4h4.571V8z" fill="#25292F"/>
    <path d="M13.155 13.155a.525.525 0 0 1 .748 0l2.797 2.798 2.797-2.798a.527.527 0 0 1 .863.172.529.529 0 0 1-.115.576L17.447 16.7l2.798 2.797a.529.529 0 0 1-.748.748L16.7 17.447l-2.796 2.798a.528.528 0 0 1-.904-.374.529.529 0 0 1 .155-.374l2.798-2.797-2.798-2.796a.525.525 0 0 1 0-.749z" fill="#25292F"/>
</svg>
