<svg width="72" height="72" viewBox="0 0 72 72" fill="none" xmlns="http://www.w3.org/2000/svg">
    <mask id="c8bpkn0nea" style="mask-type:alpha" maskUnits="userSpaceOnUse" x="0" y="0" width="72" height="72">
        <path fill="#D9D9D9" d="M0 0h72v72H0z"/>
    </mask>
    <g mask="url(#c8bpkn0nea)">
        <path d="M36 50.192c.687 0 1.262-.232 1.727-.697.464-.464.696-1.04.696-1.726 0-.686-.232-1.262-.697-1.727-.464-.464-1.04-.696-1.726-.696-.687 0-1.262.233-1.727.697-.464.464-.696 1.04-.696 1.726 0 .687.232 1.262.697 1.727.464.464 1.04.696 1.726.696zm0-10.961c.639 0 1.173-.216 1.603-.647.431-.431.647-.966.647-1.603v-13.5c0-.638-.216-1.172-.647-1.604-.432-.43-.966-.646-1.604-.646-.638 0-1.172.215-1.602.646-.431.432-.647.966-.647 1.604v13.5c0 .637.216 1.172.647 1.603.432.431.966.647 1.604.647zm.005 25.269c-3.942 0-7.647-.748-11.116-2.244-3.468-1.496-6.485-3.526-9.05-6.09-2.566-2.565-4.597-5.581-6.094-9.048C8.248 43.651 7.5 39.947 7.5 36.005c0-3.942.748-7.647 2.244-11.116 1.496-3.468 3.526-6.485 6.09-9.05 2.565-2.566 5.581-4.597 9.048-6.094C28.349 8.248 32.053 7.5 35.995 7.5c3.942 0 7.647.748 11.116 2.244 3.468 1.496 6.485 3.526 9.05 6.09 2.566 2.565 4.597 5.581 6.094 9.048 1.497 3.467 2.245 7.171 2.245 11.113 0 3.942-.748 7.647-2.244 11.116-1.496 3.468-3.526 6.485-6.09 9.05-2.565 2.566-5.581 4.597-9.048 6.094-3.467 1.497-7.171 2.245-11.113 2.245zM36 60c6.7 0 12.375-2.325 17.025-6.975C57.675 48.375 60 42.7 60 36c0-6.7-2.325-12.375-6.975-17.025C48.375 14.325 42.7 12 36 12c-6.7 0-12.375 2.325-17.025 6.975C14.325 23.625 12 29.3 12 36c0 6.7 2.325 12.375 6.975 17.025C23.625 57.675 29.3 60 36 60z" fill="#FF4D2D"/>
    </g>
</svg>
