<svg width="24" height="24" viewBox="0 0 24 24" fill="none" xmlns="http://www.w3.org/2000/svg">
    <path d="M9.244 16.489c-2.023 0-3.736-.702-5.14-2.105C2.703 12.981 2 11.267 2 9.244c0-2.023.702-3.736 2.105-5.14C5.508 2.703 7.22 2 9.245 2c2.023 0 3.736.702 5.14 2.105 1.402 1.403 2.104 3.116 2.104 5.14 0 .846-.142 1.654-.426 2.424a6.776 6.776 0 0 1-1.137 2.009l6.817 6.816c.164.164.248.37.251.619a.838.838 0 0 1-.251.63.85.85 0 0 1-.625.257.85.85 0 0 1-.624-.257l-6.816-6.817a6.771 6.771 0 0 1-2.044 1.148 7.018 7.018 0 0 1-2.39.415zm0-1.777c1.527 0 2.82-.53 3.88-1.589 1.058-1.06 1.588-2.352 1.588-3.879 0-1.526-.53-2.819-1.589-3.878-1.06-1.06-2.352-1.59-3.879-1.59-1.526 0-2.819.53-3.878 1.59-1.06 1.06-1.59 2.352-1.59 3.878 0 1.527.53 2.82 1.59 3.88 1.06 1.058 2.352 1.588 3.878 1.588z" fill="#666B72"/>
</svg>
