<svg width="24" height="24" viewBox="0 0 24 24" fill="none" xmlns="http://www.w3.org/2000/svg">
    <path d="m12 13.054-5.073 5.074a.726.726 0 0 1-.523.212.708.708 0 0 1-.531-.212.718.718 0 0 1-.218-.527c0-.207.073-.383.218-.527L10.946 12 5.873 6.929a.726.726 0 0 1-.213-.523.708.708 0 0 1 .213-.532.718.718 0 0 1 .527-.217c.206 0 .382.073.527.218l5.072 5.073 5.074-5.073a.726.726 0 0 1 .522-.213.707.707 0 0 1 .532.213c.144.145.217.32.217.527a.718.718 0 0 1-.218.527L13.053 12l5.073 5.072c.139.139.21.313.213.523a.707.707 0 0 1-.212.532.718.718 0 0 1-.527.217.718.718 0 0 1-.527-.217l-5.074-5.074z" fill="#7A8086"/>
</svg>
